<svg width="30" height="37" viewBox="0 0 30 37" fill="none" xmlns="http://www.w3.org/2000/svg">
<path d="M12.568 26.2356C11.0489 25.8286 9.62478 25.1263 8.37706 24.1689C7.12934 23.2115 6.08241 22.0177 5.29605 20.6557C4.50969 19.2937 3.9993 17.7901 3.79402 16.2308C3.58874 14.6716 3.69259 13.0871 4.09964 11.568C4.50669 10.0489 5.20896 8.62478 6.16638 7.37706C7.12379 6.12934 8.31758 5.08241 9.6796 4.29605C11.0416 3.50969 12.5452 2.9993 14.1044 2.79402C15.6637 2.58874 17.2481 2.69259 18.7673 3.09964L15.6676 14.6676L12.568 26.2356Z" fill="url(#paint0_linear_2843_917)"/>
<path d="M17.7673 10.7643C19.2864 11.1714 20.7105 11.8737 21.9582 12.8311C23.2059 13.7885 24.2528 14.9823 25.0392 16.3443C25.8256 17.7063 26.336 19.2099 26.5412 20.7691C26.7465 22.3284 26.6427 23.9128 26.2356 25.432C25.8286 26.9511 25.1263 28.3752 24.1689 29.6229C23.2115 30.8706 22.0177 31.9175 20.6557 32.7039C19.2936 33.4903 17.7901 34.0007 16.2308 34.2059C14.6715 34.4112 13.0871 34.3074 11.568 33.9003L14.6676 22.3323L17.7673 10.7643Z" fill="url(#paint1_linear_2843_917)"/>
<defs>
<linearGradient id="paint0_linear_2843_917" x1="18.7673" y1="3.09964" x2="12.568" y2="26.2356" gradientUnits="userSpaceOnUse">
<stop stop-color="#22C55E"/>
<stop offset="0.5" stop-color="#4ADE80"/>
<stop offset="1" stop-color="#BBF7D0"/>
</linearGradient>
<linearGradient id="paint1_linear_2843_917" x1="17.7673" y1="10.7643" x2="11.568" y2="33.9003" gradientUnits="userSpaceOnUse">
<stop stop-color="#BBF7D0"/>
<stop offset="0.5" stop-color="#4ADE80"/>
<stop offset="1" stop-color="#22C55E"/>
</linearGradient>
</defs>
</svg>
